%TF.GenerationSoftware,KiCad,Pcbnew,7.0.8-7.0.8~ubuntu23.04.1*%
%TF.CreationDate,2023-10-30T17:29:03+00:00*%
%TF.ProjectId,OpenMowerMainboard,4f70656e-4d6f-4776-9572-4d61696e626f,rev?*%
%TF.SameCoordinates,Original*%
%TF.FileFunction,Legend,Bot*%
%TF.FilePolarity,Positive*%
%FSLAX46Y46*%
G04 Gerber Fmt 4.6, Leading zero omitted, Abs format (unit mm)*
G04 Created by KiCad (PCBNEW 7.0.8-7.0.8~ubuntu23.04.1) date 2023-10-30 17:29:03*
%MOMM*%
%LPD*%
G01*
G04 APERTURE LIST*
%ADD10C,0.150000*%
%ADD11C,0.120000*%
G04 APERTURE END LIST*
D10*
X145054819Y-78766666D02*
X145769104Y-78766666D01*
X145769104Y-78766666D02*
X145911961Y-78719047D01*
X145911961Y-78719047D02*
X146007200Y-78623809D01*
X146007200Y-78623809D02*
X146054819Y-78480952D01*
X146054819Y-78480952D02*
X146054819Y-78385714D01*
X146054819Y-79242857D02*
X145054819Y-79242857D01*
X145054819Y-79242857D02*
X145054819Y-79623809D01*
X145054819Y-79623809D02*
X145102438Y-79719047D01*
X145102438Y-79719047D02*
X145150057Y-79766666D01*
X145150057Y-79766666D02*
X145245295Y-79814285D01*
X145245295Y-79814285D02*
X145388152Y-79814285D01*
X145388152Y-79814285D02*
X145483390Y-79766666D01*
X145483390Y-79766666D02*
X145531009Y-79719047D01*
X145531009Y-79719047D02*
X145578628Y-79623809D01*
X145578628Y-79623809D02*
X145578628Y-79242857D01*
X145054819Y-80147619D02*
X145054819Y-80766666D01*
X145054819Y-80766666D02*
X145435771Y-80433333D01*
X145435771Y-80433333D02*
X145435771Y-80576190D01*
X145435771Y-80576190D02*
X145483390Y-80671428D01*
X145483390Y-80671428D02*
X145531009Y-80719047D01*
X145531009Y-80719047D02*
X145626247Y-80766666D01*
X145626247Y-80766666D02*
X145864342Y-80766666D01*
X145864342Y-80766666D02*
X145959580Y-80719047D01*
X145959580Y-80719047D02*
X146007200Y-80671428D01*
X146007200Y-80671428D02*
X146054819Y-80576190D01*
X146054819Y-80576190D02*
X146054819Y-80290476D01*
X146054819Y-80290476D02*
X146007200Y-80195238D01*
X146007200Y-80195238D02*
X145959580Y-80147619D01*
X172809523Y-181124819D02*
X172809523Y-180124819D01*
X172809523Y-180124819D02*
X172476190Y-180839104D01*
X172476190Y-180839104D02*
X172142857Y-180124819D01*
X172142857Y-180124819D02*
X172142857Y-181124819D01*
X171142857Y-181124819D02*
X171714285Y-181124819D01*
X171428571Y-181124819D02*
X171428571Y-180124819D01*
X171428571Y-180124819D02*
X171523809Y-180267676D01*
X171523809Y-180267676D02*
X171619047Y-180362914D01*
X171619047Y-180362914D02*
X171714285Y-180410533D01*
X148054819Y-78766666D02*
X148769104Y-78766666D01*
X148769104Y-78766666D02*
X148911961Y-78719047D01*
X148911961Y-78719047D02*
X149007200Y-78623809D01*
X149007200Y-78623809D02*
X149054819Y-78480952D01*
X149054819Y-78480952D02*
X149054819Y-78385714D01*
X149054819Y-79242857D02*
X148054819Y-79242857D01*
X148054819Y-79242857D02*
X148054819Y-79623809D01*
X148054819Y-79623809D02*
X148102438Y-79719047D01*
X148102438Y-79719047D02*
X148150057Y-79766666D01*
X148150057Y-79766666D02*
X148245295Y-79814285D01*
X148245295Y-79814285D02*
X148388152Y-79814285D01*
X148388152Y-79814285D02*
X148483390Y-79766666D01*
X148483390Y-79766666D02*
X148531009Y-79719047D01*
X148531009Y-79719047D02*
X148578628Y-79623809D01*
X148578628Y-79623809D02*
X148578628Y-79242857D01*
X148150057Y-80195238D02*
X148102438Y-80242857D01*
X148102438Y-80242857D02*
X148054819Y-80338095D01*
X148054819Y-80338095D02*
X148054819Y-80576190D01*
X148054819Y-80576190D02*
X148102438Y-80671428D01*
X148102438Y-80671428D02*
X148150057Y-80719047D01*
X148150057Y-80719047D02*
X148245295Y-80766666D01*
X148245295Y-80766666D02*
X148340533Y-80766666D01*
X148340533Y-80766666D02*
X148483390Y-80719047D01*
X148483390Y-80719047D02*
X149054819Y-80147619D01*
X149054819Y-80147619D02*
X149054819Y-80766666D01*
D11*
%TO.C,JP3*%
X144600000Y-77850000D02*
X146600000Y-77850000D01*
X146600000Y-77850000D02*
X146600000Y-73750000D01*
X144100000Y-77400000D02*
X144100000Y-76800000D01*
X144400000Y-77100000D02*
X144100000Y-77400000D01*
X144400000Y-77100000D02*
X144100000Y-76800000D01*
X144600000Y-73750000D02*
X144600000Y-77850000D01*
X146600000Y-73750000D02*
X144600000Y-73750000D01*
%TO.C,M1*%
X173330000Y-186870000D02*
X170670000Y-186870000D01*
X173330000Y-184270000D02*
X173330000Y-186870000D01*
X173330000Y-184270000D02*
X170670000Y-184270000D01*
X173330000Y-183000000D02*
X173330000Y-181670000D01*
X173330000Y-181670000D02*
X172000000Y-181670000D01*
X170670000Y-184270000D02*
X170670000Y-186870000D01*
%TO.C,JP2*%
X149600000Y-73750000D02*
X147600000Y-73750000D01*
X147600000Y-73750000D02*
X147600000Y-77850000D01*
X150100000Y-74200000D02*
X150100000Y-74800000D01*
X149800000Y-74500000D02*
X150100000Y-74200000D01*
X149800000Y-74500000D02*
X150100000Y-74800000D01*
X149600000Y-77850000D02*
X149600000Y-73750000D01*
X147600000Y-77850000D02*
X149600000Y-77850000D01*
%TD*%
M02*
